# xmcd
#
# Track frame offsets:
#	150
#	15230
#	33232
#	47257
#	61332
#	79832
#	96362
#	109040
#	125425
#	143857
#	156707
#	172997
#	184412
#	199722
#
# Disc length: 2904
#
# Revision: 7
# Processed by: cddbd v1.5.1PL0 Copyright (c) Steve Scherf et al.
# Submitted via: CDex 1.30Release
# Normalized: r5:DSETVAR1,TSWAP
#
DISCID=b60b560e
DTITLE=Various Artist - Country's Best Love Songs
DYEAR=1900
DGENRE=Country
TTITLE0=I'd Love to Lay You Down - Conway Twitty
TTITLE1=You and I - Eddie Rabbitt with Crystal Gayle
TTITLE2=Barbara Mandrell - (If Loving You Is Wrong)I Don't Want to Be Right
TTITLE3=Ricky Van Shelton - I'll Leave this world loving You
TTITLE4=juice Newton - The Sweetest Thing (I've Ever Known)
TTITLE5=Freddy Fender - Secret Love
TTITLE6=Mark Chesnutt - Your Love Is A Miracle
TTITLE7=it Was Almost Like A Song - Ronnie Milsap
TTITLE8=Don Williams - I Believe In You
TTITLE9=Michael Martin Murphey - What's Forever For
TTITLE10=Alabama - When We Make Love
TTITLE11=Patty Loveless - Timber, I'm Falling In Love
TTITLE12=Lee Greenwood - I Don't Mind the Thorns (If You're the Rose)
TTITLE13=Steve Wariner - You Can Dream of Me
EXTD=ID3G:   2
EXTT0=
EXTT1=
EXTT2=
EXTT3=
EXTT4=
EXTT5=
EXTT6=
EXTT7=
EXTT8=
EXTT9=
EXTT10=
EXTT11=
EXTT12=
EXTT13=
PLAYORDER=
